HIERARCHY
ROOT Hips
{
	OFFSET 0.000000 0.000000 0.000000
	CHANNELS 6 Xposition Yposition Zposition Xrotation Yrotation Zrotation
	JOINT Thigh.L
	{
		OFFSET 0.053667 0.029083 -0.093464
		CHANNELS 3 Xrotation Yrotation Zrotation
		JOINT Shin.L
		{
			OFFSET 0.059516 0.008282 -0.412983
			CHANNELS 3 Xrotation Yrotation Zrotation
			JOINT Foot.L
			{
				OFFSET -0.041974 0.031445 -0.435853
				CHANNELS 3 Xrotation Yrotation Zrotation
				JOINT Toe.L
				{
					OFFSET 0.047206 -0.125139 -0.064734
					CHANNELS 3 Xrotation Yrotation Zrotation
					End Site
					{
						OFFSET 0.000000 0.050000 0.000000
					}
				}
			}
		}
	}
	JOINT Thigh.R
	{
		OFFSET -0.058894 0.024030 -0.105628
		CHANNELS 3 Xrotation Yrotation Zrotation
		JOINT Shin.R
		{
			OFFSET -0.048478 0.015670 -0.394783
			CHANNELS 3 Xrotation Yrotation Zrotation
			JOINT Foot.R
			{
				OFFSET 0.014628 0.019770 -0.444983
				CHANNELS 3 Xrotation Yrotation Zrotation
				JOINT Toe.R
				{
					OFFSET -0.038916 -0.125963 -0.064570
					CHANNELS 3 Xrotation Yrotation Zrotation
					End Site
					{
						OFFSET 0.000000 0.050000 0.000000
					}
				}
			}
		}
	}
	JOINT Spine
	{
		OFFSET -0.002512 0.023689 0.111795
		CHANNELS 3 Xrotation Yrotation Zrotation
		JOINT Spine.2
		{
			OFFSET 0.008090 0.004920 0.140542
			CHANNELS 3 Xrotation Yrotation Zrotation
			JOINT Chest
			{
				OFFSET -0.010418 -0.021628 0.055187
				CHANNELS 3 Xrotation Yrotation Zrotation
				JOINT Neck
				{
					OFFSET -0.011270 0.023045 0.166877
					CHANNELS 3 Xrotation Yrotation Zrotation
					JOINT Head
					{
						OFFSET 0.024679 -0.023078 0.170118
						CHANNELS 3 Xrotation Yrotation Zrotation
						End Site
						{
							OFFSET 0.000000 0.050000 0.000000
						}
					}
				}
				JOINT Clavicle.L
				{
					OFFSET 0.046475 0.003703 0.086018
					CHANNELS 3 Xrotation Yrotation Zrotation
					JOINT UpperArm.L
					{
						OFFSET 0.123353 0.014272 0.058821
						CHANNELS 3 Xrotation Yrotation Zrotation
						JOINT ForeArm.L
						{
							OFFSET 0.270010 0.040627 -0.075962
							CHANNELS 3 Xrotation Yrotation Zrotation
							JOINT Hand.L
							{
								OFFSET 0.272835 0.002145 0.021770
								CHANNELS 3 Xrotation Yrotation Zrotation
								JOINT Thumb1.L
								{
									OFFSET 0.154616 0.000940 0.009544
									CHANNELS 3 Xrotation Yrotation Zrotation
									JOINT Thumb2.L
									{
										OFFSET 0.029904 0.000235 0.002386
										CHANNELS 3 Xrotation Yrotation Zrotation
										End Site
										{
											OFFSET 0.024920 0.000196 0.001988
										}
									}
								}
								JOINT Index1.L
								{
									OFFSET 0.137616 0.000940 0.009544
									CHANNELS 3 Xrotation Yrotation Zrotation
									JOINT Index2.L
									{
										OFFSET 0.029904 0.000235 0.002386
										CHANNELS 3 Xrotation Yrotation Zrotation
										JOINT Index3.L
										{
											OFFSET 0.021930 0.000172 0.001750
											CHANNELS 3 Xrotation Yrotation Zrotation
											End Site
											{
												OFFSET 0.017942 0.000141 0.001432
											}
										}
									}
								}
								JOINT Middle1.L
								{
									OFFSET 0.119616 0.000940 0.009544
									CHANNELS 3 Xrotation Yrotation Zrotation
									JOINT Middle2.L
									{
										OFFSET 0.030901 0.000243 0.002466
										CHANNELS 3 Xrotation Yrotation Zrotation
										JOINT Middle3.L
										{
											OFFSET 0.021930 0.000172 0.001750
											CHANNELS 3 Xrotation Yrotation Zrotation
											End Site
											{
												OFFSET 0.017942 0.000141 0.001432
											}
										}
									}
								}
								JOINT Ring1.L
								{
									OFFSET 0.101616 0.000940 0.009544
									CHANNELS 3 Xrotation Yrotation Zrotation
									JOINT Ring2.L
									{
										OFFSET 0.028907 0.000227 0.002307
										CHANNELS 3 Xrotation Yrotation Zrotation
										JOINT Ring3.L
										{
											OFFSET 0.019936 0.000157 0.001591
											CHANNELS 3 Xrotation Yrotation Zrotation
											End Site
											{
												OFFSET 0.016946 0.000133 0.001352
											}
										}
									}
								}
								JOINT Pinky1.L
								{
									OFFSET 0.085616 0.000940 0.009544
									CHANNELS 3 Xrotation Yrotation Zrotation
									JOINT Pinky2.L
									{
										OFFSET 0.023923 0.000188 0.001909
										CHANNELS 3 Xrotation Yrotation Zrotation
										JOINT Pinky3.L
										{
											OFFSET 0.016946 0.000133 0.001352
											CHANNELS 3 Xrotation Yrotation Zrotation
											End Site
											{
												OFFSET 0.013955 0.000110 0.001114
											}
										}
									}
								}
							}
						}
					}
				}
				JOINT Clavicle.R
				{
					OFFSET -0.046328 0.009883 0.085150
					CHANNELS 3 Xrotation Yrotation Zrotation
					JOINT UpperArm.R
					{
						OFFSET -0.107160 0.009894 0.055005
						CHANNELS 3 Xrotation Yrotation Zrotation
						JOINT ForeArm.R
						{
							OFFSET -0.287826 0.026504 -0.041297
							CHANNELS 3 Xrotation Yrotation Zrotation
							JOINT Hand.R
							{
								OFFSET -0.269128 0.015422 -0.004971
								CHANNELS 3 Xrotation Yrotation Zrotation
								JOINT Thumb1.R
								{
									OFFSET -0.154783 0.006864 -0.002213
									CHANNELS 3 Xrotation Yrotation Zrotation
									JOINT Thumb2.R
									{
										OFFSET -0.029946 0.001716 -0.000553
										CHANNELS 3 Xrotation Yrotation Zrotation
										End Site
										{
											OFFSET -0.024955 0.001430 -0.000461
										}
									}
								}
								JOINT Index1.R
								{
									OFFSET -0.137783 0.006864 -0.002213
									CHANNELS 3 Xrotation Yrotation Zrotation
									JOINT Index2.R
									{
										OFFSET -0.029946 0.001716 -0.000553
										CHANNELS 3 Xrotation Yrotation Zrotation
										JOINT Index3.R
										{
											OFFSET -0.021960 0.001258 -0.000406
											CHANNELS 3 Xrotation Yrotation Zrotation
											End Site
											{
												OFFSET -0.017967 0.001030 -0.000332
											}
										}
									}
								}
								JOINT Middle1.R
								{
									OFFSET -0.119783 0.006864 -0.002213
									CHANNELS 3 Xrotation Yrotation Zrotation
									JOINT Middle2.R
									{
										OFFSET -0.030944 0.001773 -0.000572
										CHANNELS 3 Xrotation Yrotation Zrotation
										JOINT Middle3.R
										{
											OFFSET -0.021960 0.001258 -0.000406
											CHANNELS 3 Xrotation Yrotation Zrotation
											End Site
											{
												OFFSET -0.017967 0.001030 -0.000332
											}
										}
									}
								}
								JOINT Ring1.R
								{
									OFFSET -0.101783 0.006864 -0.002213
									CHANNELS 3 Xrotation Yrotation Zrotation
									JOINT Ring2.R
									{
										OFFSET -0.028948 0.001659 -0.000535
										CHANNELS 3 Xrotation Yrotation Zrotation
										JOINT Ring3.R
										{
											OFFSET -0.019964 0.001144 -0.000369
											CHANNELS 3 Xrotation Yrotation Zrotation
											End Site
											{
												OFFSET -0.016969 0.000972 -0.000313
											}
										}
									}
								}
								JOINT Pinky1.R
								{
									OFFSET -0.085783 0.006864 -0.002213
									CHANNELS 3 Xrotation Yrotation Zrotation
									JOINT Pinky2.R
									{
										OFFSET -0.023957 0.001373 -0.000443
										CHANNELS 3 Xrotation Yrotation Zrotation
										JOINT Pinky3.R
										{
											OFFSET -0.016969 0.000972 -0.000313
											CHANNELS 3 Xrotation Yrotation Zrotation
											End Site
											{
												OFFSET -0.013975 0.000801 -0.000258
											}
										}
									}
								}
							}
						}
					}
				}
			}
		}
	}
}
MOTION
Frames: 5
Frame Time: 0.03333333
-0.002827 -0.063475 1.444843 -9.207119 0.885708 1.044226 5.916361 0.608205 1.724329 6.316102 -0.041283 -3.480486 -2.423942 2.405530 9.668898 0.741172 -2.601725 -0.532450 3.532464 -1.200915 -2.428817 9.210624 1.166530 -0.055195 1.186104 -5.004767 -6.199167 0.057802 1.757399 0.858401 4.444072 -1.518707 2.046494 2.555514 -1.756241 -2.432907 -0.974122 0.742427 0.132951 11.205662 4.770417 2.807276 8.444048 0.000986 8.418396 6.558525 19.771824 -0.635567 19.065256 50.194754 -19.122116 14.431688 -2.629740 -23.408709 2.332448 -3.452974 -10.882818 0.000000 0.000000 0.000000 0.000000 0.000000 0.000000 0.000000 0.000000 0.000000 0.000000 0.000000 0.000000 0.000000 0.000000 0.000000 0.000000 0.000000 0.000000 0.000000 0.000000 0.000000 0.000000 0.000000 0.000000 0.000000 0.000000 0.000000 0.000000 0.000000 0.000000 0.000000 0.000000 0.000000 0.000000 0.000000 0.000000 0.000000 0.000000 0.000000 0.000000 0.000000 0.000000 4.180958 -12.084685 4.534747 29.918238 -55.136790 26.180177 11.317371 6.643437 29.246384 0.927469 2.867338 6.197512 0.000000 0.000000 0.000000 0.000000 0.000000 0.000000 0.000000 0.000000 0.000000 0.000000 0.000000 0.000000 0.000000 0.000000 0.000000 0.000000 0.000000 0.000000 0.000000 0.000000 0.000000 0.000000 0.000000 0.000000 0.000000 0.000000 0.000000 0.000000 0.000000 0.000000 0.000000 0.000000 0.000000 0.000000 0.000000 0.000000 0.000000 0.000000 0.000000 0.000000 0.000000 0.000000
-0.001552 -0.064328 1.445062 -9.311625 0.834043 1.124904 6.136903 0.604724 1.714631 6.063604 -0.065582 -3.418163 -2.296534 2.431747 9.609387 0.735333 -2.568668 -0.553010 3.806455 -1.217431 -2.429442 8.915476 1.138685 -0.074950 1.256233 -4.938114 -6.267974 0.042021 1.785836 0.874044 4.343012 -1.534935 2.046997 2.755319 -1.799192 -2.466255 -1.035811 0.760962 0.121927 11.339317 4.820572 2.731322 8.281958 -0.011838 8.445323 6.528064 19.767279 -0.624120 19.200377 50.122551 -19.186747 14.424307 -2.700598 -23.511378 2.219608 -3.327924 -10.993356 0.000000 0.000000 0.000000 0.000000 0.000000 0.000000 0.000000 0.000000 0.000000 0.000000 0.000000 0.000000 0.000000 0.000000 0.000000 0.000000 0.000000 0.000000 0.000000 0.000000 0.000000 0.000000 0.000000 0.000000 0.000000 0.000000 0.000000 0.000000 0.000000 0.000000 0.000000 0.000000 0.000000 0.000000 0.000000 0.000000 0.000000 0.000000 0.000000 0.000000 0.000000 0.000000 4.196077 -12.125216 4.535353 29.979545 -55.131134 26.138642 11.314683 6.720060 29.477612 0.971059 2.857678 6.313532 0.000000 0.000000 0.000000 0.000000 0.000000 0.000000 0.000000 0.000000 0.000000 0.000000 0.000000 0.000000 0.000000 0.000000 0.000000 0.000000 0.000000 0.000000 0.000000 0.000000 0.000000 0.000000 0.000000 0.000000 0.000000 0.000000 0.000000 0.000000 0.000000 0.000000 0.000000 0.000000 0.000000 0.000000 0.000000 0.000000 0.000000 0.000000 0.000000 0.000000 0.000000 0.000000
-0.000092 -0.064104 1.445079 -9.312518 0.785676 1.073521 6.222581 0.612266 1.707182 5.923349 -0.115342 -3.327487 -2.238369 2.486369 9.594057 0.720370 -2.553529 -0.586400 3.944666 -1.234465 -2.404860 8.683080 1.135105 -0.058757 1.269061 -4.908919 -6.293075 0.038526 1.844477 0.912385 4.231840 -1.567127 2.079737 2.914209 -1.793759 -2.484212 -1.080307 0.770181 0.128299 11.352007 4.874317 2.640510 8.116246 -0.042436 8.398971 6.409471 19.755462 -0.497750 19.331920 50.073871 -19.131831 14.382006 -2.780611 -23.691511 2.178450 -3.199223 -11.067486 0.000000 0.000000 0.000000 0.000000 0.000000 0.000000 0.000000 0.000000 0.000000 0.000000 0.000000 0.000000 0.000000 0.000000 0.000000 0.000000 0.000000 0.000000 0.000000 0.000000 0.000000 0.000000 0.000000 0.000000 0.000000 0.000000 0.000000 0.000000 0.000000 0.000000 0.000000 0.000000 0.000000 0.000000 0.000000 0.000000 0.000000 0.000000 0.000000 0.000000 0.000000 0.000000 4.155083 -12.126398 4.486270 30.083392 -55.181526 26.114244 11.350105 6.761218 29.701586 1.013872 2.792407 6.365552 0.000000 0.000000 0.000000 0.000000 0.000000 0.000000 0.000000 0.000000 0.000000 0.000000 0.000000 0.000000 0.000000 0.000000 0.000000 0.000000 0.000000 0.000000 0.000000 0.000000 0.000000 0.000000 0.000000 0.000000 0.000000 0.000000 0.000000 0.000000 0.000000 0.000000 0.000000 0.000000 0.000000 0.000000 0.000000 0.000000 0.000000 0.000000 0.000000 0.000000 0.000000 0.000000
0.000232 -0.065892 1.445083 -9.388646 0.776775 1.100617 6.132461 0.595262 1.694496 6.050364 -0.126157 -3.306198 -2.210552 2.515768 9.625590 0.688493 -2.537073 -0.652171 3.956363 -1.229455 -2.397667 8.652834 1.109437 -0.105752 1.338961 -4.955627 -6.309129 0.007992 1.979490 0.973306 4.283644 -1.564359 2.079890 3.010290 -1.811404 -2.489477 -1.172132 0.768241 0.118280 11.336948 4.911788 2.538360 7.962981 -0.109651 8.402835 6.395972 19.744052 -0.512239 19.378178 50.020715 -19.134711 14.437569 -2.846045 -23.929307 2.129506 -3.228633 -11.147906 0.000000 0.000000 0.000000 0.000000 0.000000 0.000000 0.000000 0.000000 0.000000 0.000000 0.000000 0.000000 0.000000 0.000000 0.000000 0.000000 0.000000 0.000000 0.000000 0.000000 0.000000 0.000000 0.000000 0.000000 0.000000 0.000000 0.000000 0.000000 0.000000 0.000000 0.000000 0.000000 0.000000 0.000000 0.000000 0.000000 0.000000 0.000000 0.000000 0.000000 0.000000 0.000000 4.168861 -12.081885 4.500916 30.048025 -55.177628 26.119401 11.455330 6.806958 29.747152 0.959800 2.789158 6.406614 0.000000 0.000000 0.000000 0.000000 0.000000 0.000000 0.000000 0.000000 0.000000 0.000000 0.000000 0.000000 0.000000 0.000000 0.000000 0.000000 0.000000 0.000000 0.000000 0.000000 0.000000 0.000000 0.000000 0.000000 0.000000 0.000000 0.000000 0.000000 0.000000 0.000000 0.000000 0.000000 0.000000 0.000000 0.000000 0.000000 0.000000 0.000000 0.000000 0.000000 0.000000 0.000000
0.000691 -0.067772 1.445070 -9.481638 0.753364 1.091914 5.981781 0.586802 1.700674 6.318992 -0.118950 -3.350455 -2.208862 2.495431 9.713286 0.675244 -2.529465 -0.706093 3.897081 -1.223090 -2.381558 8.789154 1.099095 -0.135091 1.353732 -4.903060 -6.359077 -0.035464 2.012566 0.997014 4.390399 -1.549878 2.076459 3.133103 -1.819440 -2.481384 -1.228001 0.782146 0.138904 11.341576 4.941583 2.436739 7.857197 -0.152554 8.359863 6.419332 19.699729 -0.620868 19.427768 49.930320 -19.145976 14.444878 -2.899053 -24.222330 2.077117 -3.223982 -11.209143 0.000000 0.000000 0.000000 0.000000 0.000000 0.000000 0.000000 0.000000 0.000000 0.000000 0.000000 0.000000 0.000000 0.000000 0.000000 0.000000 0.000000 0.000000 0.000000 0.000000 0.000000 0.000000 0.000000 0.000000 0.000000 0.000000 0.000000 0.000000 0.000000 0.000000 0.000000 0.000000 0.000000 0.000000 0.000000 0.000000 0.000000 0.000000 0.000000 0.000000 0.000000 0.000000 4.165391 -12.030184 4.591681 30.006638 -55.196874 26.096371 11.484426 6.824238 29.806596 0.956180 2.722630 6.475407 0.000000 0.000000 0.000000 0.000000 0.000000 0.000000 0.000000 0.000000 0.000000 0.000000 0.000000 0.000000 0.000000 0.000000 0.000000 0.000000 0.000000 0.000000 0.000000 0.000000 0.000000 0.000000 0.000000 0.000000 0.000000 0.000000 0.000000 0.000000 0.000000 0.000000 0.000000 0.000000 0.000000 0.000000 0.000000 0.000000 0.000000 0.000000 0.000000 0.000000 0.000000 0.000000
